<svg width="16" height="16" viewBox="0 0 16 16" fill="none" xmlns="http://www.w3.org/2000/svg">
<path d="M7.46989 12.0303C7.53953 12.1 7.62221 12.1552 7.71321 12.1929C7.80421 12.2306 7.90174 12.25 8.00023 12.25C8.09873 12.25 8.19626 12.2306 8.28725 12.1929C8.37825 12.1552 8.46093 12.1 8.53058 12.0303L11.359 9.20191C11.4996 9.06125 11.5786 8.87049 11.5786 8.67158C11.5786 8.47267 11.4996 8.2819 11.359 8.14125C11.2183 8.0006 11.0276 7.92158 10.8287 7.92158C10.6297 7.92158 10.439 8.0006 10.2983 8.14125L8.75023 9.68934V1.5C8.75023 1.30109 8.67121 1.11032 8.53056 0.96967C8.38991 0.829018 8.19914 0.75 8.00023 0.75C7.80132 0.75 7.61055 0.829018 7.4699 0.96967C7.32925 1.11032 7.25023 1.30109 7.25023 1.5V9.68934L5.70214 8.14125C5.56149 8.0006 5.37072 7.92158 5.17181 7.92158C4.9729 7.92158 4.78213 8.0006 4.64148 8.14125C4.50083 8.2819 4.42181 8.47267 4.42181 8.67158C4.42181 8.87049 4.50083 9.06125 4.64148 9.20191L7.46989 12.0303Z" fill="white"/>
<path d="M14.5 7.25C14.3011 7.25 14.1103 7.32902 13.9697 7.46967C13.829 7.61032 13.75 7.80109 13.75 8V13.75H2.25V8C2.25 7.80109 2.17098 7.61032 2.03033 7.46967C1.88968 7.32902 1.69891 7.25 1.5 7.25C1.30109 7.25 1.11032 7.32902 0.96967 7.46967C0.829018 7.61032 0.75 7.80109 0.75 8V14C0.75 14.3315 0.881696 14.6495 1.11612 14.8839C1.35054 15.1183 1.66848 15.25 2 15.25H14C14.3315 15.25 14.6495 15.1183 14.8839 14.8839C15.1183 14.6495 15.25 14.3315 15.25 14V8C15.25 7.80109 15.171 7.61032 15.0303 7.46967C14.8897 7.32902 14.6989 7.25 14.5 7.25Z" fill="white"/>
</svg>
