<svg width="21" height="20" viewBox="0 0 21 20" fill="none" xmlns="http://www.w3.org/2000/svg">
<g clip-path="url(#clip0_1393_288)">
<path d="M19.1929 17.5C19.1929 17.5 20.4724 17.5 20.4724 16.25C20.4724 15 19.1929 11.25 14.0748 11.25C8.95669 11.25 7.67717 15 7.67717 16.25C7.67717 17.5 8.95669 17.5 8.95669 17.5H19.1929ZM8.98484 16.25C8.97539 16.2487 8.966 16.2471 8.95669 16.245C8.95797 15.915 9.17037 14.9575 9.92913 14.095C10.6354 13.2863 11.8766 12.5 14.0748 12.5C16.2718 12.5 17.5129 13.2875 18.2205 14.095C18.9792 14.9575 19.1904 15.9163 19.1929 16.245L19.1827 16.2475C19.1767 16.2485 19.1708 16.2493 19.1648 16.25H8.98484ZM14.0748 8.75C14.7535 8.75 15.4044 8.48661 15.8843 8.01777C16.3642 7.54893 16.6339 6.91304 16.6339 6.25C16.6339 5.58696 16.3642 4.95107 15.8843 4.48223C15.4044 4.01339 14.7535 3.75 14.0748 3.75C13.3961 3.75 12.7452 4.01339 12.2653 4.48223C11.7854 4.95107 11.5157 5.58696 11.5157 6.25C11.5157 6.91304 11.7854 7.54893 12.2653 8.01777C12.7452 8.48661 13.3961 8.75 14.0748 8.75ZM17.9134 6.25C17.9134 6.74246 17.8141 7.23009 17.6212 7.68506C17.4283 8.14003 17.1455 8.55343 16.7891 8.90165C16.4326 9.24987 16.0095 9.52609 15.5438 9.71455C15.078 9.903 14.5789 10 14.0748 10C13.5707 10 13.0716 9.903 12.6058 9.71455C12.1401 9.52609 11.717 9.24987 11.3605 8.90165C11.0041 8.55343 10.7213 8.14003 10.5284 7.68506C10.3355 7.23009 10.2362 6.74246 10.2362 6.25C10.2362 5.25544 10.6406 4.30161 11.3605 3.59835C12.0804 2.89509 13.0567 2.5 14.0748 2.5C15.0929 2.5 16.0692 2.89509 16.7891 3.59835C17.509 4.30161 17.9134 5.25544 17.9134 6.25ZM8.8748 11.6C8.36297 11.4425 7.83536 11.339 7.30098 11.2913C7.00072 11.2634 6.69926 11.2496 6.39764 11.25C1.27953 11.25 0 15 0 16.25C0 17.0837 0.426083 17.5 1.27953 17.5H6.67402C6.48433 17.1098 6.38973 16.6819 6.39764 16.25C6.39764 14.9875 6.88002 13.6975 7.79232 12.62C8.10325 12.2525 8.46535 11.9087 8.8748 11.6ZM6.29528 12.5C5.53799 13.6116 5.12891 14.9148 5.11811 16.25H1.27953C1.27953 15.925 1.48937 14.9625 2.25197 14.095C2.94931 13.3 4.16102 12.525 6.29528 12.5013V12.5ZM1.91929 6.875C1.91929 5.88044 2.32371 4.92661 3.04359 4.22335C3.76346 3.52009 4.73982 3.125 5.75787 3.125C6.77593 3.125 7.75229 3.52009 8.47216 4.22335C9.19204 4.92661 9.59646 5.88044 9.59646 6.875C9.59646 7.86956 9.19204 8.82339 8.47216 9.52665C7.75229 10.2299 6.77593 10.625 5.75787 10.625C4.73982 10.625 3.76346 10.2299 3.04359 9.52665C2.32371 8.82339 1.91929 7.86956 1.91929 6.875ZM5.75787 4.375C5.07917 4.375 4.42826 4.63839 3.94835 5.10723C3.46843 5.57607 3.19882 6.21196 3.19882 6.875C3.19882 7.53804 3.46843 8.17393 3.94835 8.64277C4.42826 9.11161 5.07917 9.375 5.75787 9.375C6.43658 9.375 7.08748 9.11161 7.5674 8.64277C8.04732 8.17393 8.31693 7.53804 8.31693 6.875C8.31693 6.21196 8.04732 5.57607 7.5674 5.10723C7.08748 4.63839 6.43658 4.375 5.75787 4.375Z" fill="#222222" fill-opacity="0.45"/>
</g>
<defs>
<clipPath id="clip0_1393_288">
<rect width="20.4724" height="20" fill="white"/>
</clipPath>
</defs>
</svg>
