<svg width="16" height="16" viewBox="0 0 16 16" fill="none" xmlns="http://www.w3.org/2000/svg">
<path d="M5.91303 0H1.04313C0.467813 0 0 0.468187 0 1.04347V5.91303C0 6.48834 0.468187 6.9565 1.04347 6.9565H5.91303C6.48834 6.9565 6.9565 6.48831 6.9565 5.91303V1.04347C6.95653 0.468187 6.48834 0 5.91303 0ZM6.26088 5.91303C6.26088 6.10469 6.10469 6.26084 5.91306 6.26084H1.04347C0.851812 6.26084 0.695656 6.10466 0.695656 5.91303V1.04347C0.695656 0.851812 0.851469 0.695656 1.04313 0.695656H5.91303C6.10469 0.695656 6.26084 0.851844 6.26084 1.04347V5.91303H6.26088Z" fill="#222222" fill-opacity="0.45"/>
<path d="M14.9568 0H10.0872C9.51192 0 9.04376 0.468187 9.04376 1.04347V5.91303C9.04376 6.48834 9.51195 6.9565 10.0872 6.9565H14.9568C15.5321 6.9565 16.0003 6.48831 16.0003 5.91303V1.04347C16.0003 0.468187 15.5321 0 14.9568 0ZM15.3046 5.91303C15.3046 6.10469 15.1488 6.26084 14.9568 6.26084H10.0872C9.89523 6.26084 9.73942 6.10466 9.73942 5.91303V1.04347C9.73942 0.851812 9.89523 0.695656 10.0872 0.695656H14.9568C15.1488 0.695656 15.3046 0.851844 15.3046 1.04347V5.91303Z" fill="#222222" fill-opacity="0.45"/>
<path d="M5.91303 9.04337H1.04313C0.467813 9.04337 0 9.51156 0 10.0869V14.9564C0 15.5317 0.468187 15.9999 1.04347 15.9999H5.91303C6.48834 15.9999 6.9565 15.5317 6.9565 14.9564V10.0869C6.95653 9.51156 6.48834 9.04337 5.91303 9.04337ZM6.26088 14.9564C6.26088 15.1484 6.10469 15.3042 5.91306 15.3042H1.04347C0.851812 15.3042 0.695656 15.1484 0.695656 14.9564V10.0869C0.695656 9.89487 0.851469 9.73906 1.04313 9.73906H5.91303C6.10469 9.73906 6.26084 9.89487 6.26084 10.0869V14.9564H6.26088Z" fill="#222222" fill-opacity="0.45"/>
<path d="M14.9568 9.04337H10.0872C9.51192 9.04337 9.04376 9.51156 9.04376 10.0868V14.9564C9.04376 15.5317 9.51195 15.9999 10.0872 15.9999H14.9568C15.5321 15.9999 16.0003 15.5317 16.0003 14.9564V10.0869C16.0003 9.51156 15.5321 9.04337 14.9568 9.04337ZM15.3046 14.9564C15.3046 15.1484 15.1488 15.3042 14.9568 15.3042H10.0872C9.89523 15.3042 9.73942 15.1484 9.73942 14.9564V10.0869C9.73942 9.89487 9.89523 9.73906 10.0872 9.73906H14.9568C15.1488 9.73906 15.3046 9.89487 15.3046 10.0869V14.9564Z" fill="#222222" fill-opacity="0.45"/>
</svg>
