<svg width="20" height="21" viewBox="0 0 20 21" fill="none" xmlns="http://www.w3.org/2000/svg">
<g clip-path="url(#clip0_2_5159)">
<path d="M4.375 0.469727C4.54076 0.469727 4.69973 0.536114 4.81694 0.654283C4.93415 0.772453 5 0.932725 5 1.09984V1.72996H15V1.09984C15 0.932725 15.0658 0.772453 15.1831 0.654283C15.3003 0.536114 15.4592 0.469727 15.625 0.469727C15.7908 0.469727 15.9497 0.536114 16.0669 0.654283C16.1842 0.772453 16.25 0.932725 16.25 1.09984V1.72996H17.5C18.163 1.72996 18.7989 1.99551 19.2678 2.46818C19.7366 2.94086 20 3.58195 20 4.25042V18.113C20 18.7814 19.7366 19.4225 19.2678 19.8952C18.7989 20.3679 18.163 20.6334 17.5 20.6334H2.5C1.83696 20.6334 1.20107 20.3679 0.732233 19.8952C0.263392 19.4225 0 18.7814 0 18.113V4.25042C0 3.58195 0.263392 2.94086 0.732233 2.46818C1.20107 1.99551 1.83696 1.72996 2.5 1.72996H3.75V1.09984C3.75 0.932725 3.81585 0.772453 3.93306 0.654283C4.05027 0.536114 4.20924 0.469727 4.375 0.469727V0.469727ZM2.5 2.99019C2.16848 2.99019 1.85054 3.12296 1.61612 3.3593C1.3817 3.59564 1.25 3.91619 1.25 4.25042V18.113C1.25 18.4472 1.3817 18.7677 1.61612 19.0041C1.85054 19.2404 2.16848 19.3732 2.5 19.3732H17.5C17.8315 19.3732 18.1495 19.2404 18.3839 19.0041C18.6183 18.7677 18.75 18.4472 18.75 18.113V4.25042C18.75 3.91619 18.6183 3.59564 18.3839 3.3593C18.1495 3.12296 17.8315 2.99019 17.5 2.99019H2.5Z" fill="#616161"/>
<path d="M3.125 5.51073C3.125 5.34361 3.19085 5.18334 3.30806 5.06517C3.42527 4.947 3.58424 4.88062 3.75 4.88062H16.25C16.4158 4.88062 16.5747 4.947 16.6919 5.06517C16.8092 5.18334 16.875 5.34361 16.875 5.51073V6.77096C16.875 6.93808 16.8092 7.09835 16.6919 7.21652C16.5747 7.33469 16.4158 7.40108 16.25 7.40108H3.75C3.58424 7.40108 3.42527 7.33469 3.30806 7.21652C3.19085 7.09835 3.125 6.93808 3.125 6.77096V5.51073Z" fill="#616161"/>
</g>
<defs>
<clipPath id="clip0_2_5159">
<rect width="20" height="20.1637" fill="white" transform="translate(0 0.469727)"/>
</clipPath>
</defs>
</svg>
