<svg width="20" height="20" viewBox="0 0 20 20" fill="none" xmlns="http://www.w3.org/2000/svg">
<g clip-path="url(#clip0_2_5167)">
<path d="M7.5 10C8.49456 10 9.44839 9.60491 10.1517 8.90165C10.8549 8.19839 11.25 7.24456 11.25 6.25C11.25 5.25544 10.8549 4.30161 10.1517 3.59835C9.44839 2.89509 8.49456 2.5 7.5 2.5C6.50544 2.5 5.55161 2.89509 4.84835 3.59835C4.14509 4.30161 3.75 5.25544 3.75 6.25C3.75 7.24456 4.14509 8.19839 4.84835 8.90165C5.55161 9.60491 6.50544 10 7.5 10ZM10 6.25C10 6.91304 9.73661 7.54893 9.26777 8.01777C8.79893 8.48661 8.16304 8.75 7.5 8.75C6.83696 8.75 6.20107 8.48661 5.73223 8.01777C5.26339 7.54893 5 6.91304 5 6.25C5 5.58696 5.26339 4.95107 5.73223 4.48223C6.20107 4.01339 6.83696 3.75 7.5 3.75C8.16304 3.75 8.79893 4.01339 9.26777 4.48223C9.73661 4.95107 10 5.58696 10 6.25ZM15 16.25C15 17.5 13.75 17.5 13.75 17.5H1.25C1.25 17.5 0 17.5 0 16.25C0 15 1.25 11.25 7.5 11.25C13.75 11.25 15 15 15 16.25ZM13.75 16.245C13.7487 15.9375 13.5575 15.0125 12.71 14.165C11.895 13.35 10.3612 12.5 7.5 12.5C4.6375 12.5 3.105 13.35 2.29 14.165C1.4425 15.0125 1.2525 15.9375 1.25 16.245H13.75Z" fill="#616161"/>
<path fill-rule="evenodd" clip-rule="evenodd" d="M19.8174 6.43264C19.8756 6.4907 19.9218 6.55967 19.9533 6.6356C19.9848 6.71153 20.0011 6.79293 20.0011 6.87514C20.0011 6.95735 19.9848 7.03875 19.9533 7.11468C19.9218 7.19061 19.8756 7.25958 19.8174 7.31764L16.0674 11.0676C16.0094 11.1258 15.9404 11.172 15.8645 11.2035C15.7885 11.235 15.7071 11.2513 15.6249 11.2513C15.5427 11.2513 15.4613 11.235 15.3854 11.2035C15.3095 11.172 15.2405 11.1258 15.1824 11.0676L13.3074 9.19264C13.1901 9.07528 13.1241 8.91611 13.1241 8.75014C13.1241 8.58417 13.1901 8.425 13.3074 8.30764C13.4248 8.19028 13.584 8.12435 13.7499 8.12435C13.9159 8.12435 14.0751 8.19028 14.1924 8.30764L15.6249 9.74139L18.9324 6.43264C18.9905 6.37444 19.0595 6.32826 19.1354 6.29675C19.2113 6.26524 19.2927 6.24902 19.3749 6.24902C19.4571 6.24902 19.5385 6.26524 19.6145 6.29675C19.6904 6.32826 19.7594 6.37444 19.8174 6.43264Z" fill="#616161"/>
</g>
<defs>
<clipPath id="clip0_2_5167">
<rect width="20" height="20" fill="white"/>
</clipPath>
</defs>
</svg>
