<svg width="16" height="16" viewBox="0 0 16 16" fill="none" xmlns="http://www.w3.org/2000/svg">
<g clip-path="url(#clip0_857:6268)">
<path d="M9.46586 8.01461L15.6959 1.78433C16.1014 1.37908 16.1014 0.723842 15.6959 0.318588C15.2907 -0.0866649 14.6355 -0.0866649 14.2302 0.318588L7.99992 6.54886L1.76983 0.318588C1.36439 -0.0866649 0.709337 -0.0866649 0.304083 0.318588C-0.101361 0.723842 -0.101361 1.37908 0.304083 1.78433L6.53417 8.01461L0.304083 14.2449C-0.101361 14.6501 -0.101361 15.3054 0.304083 15.7106C0.506045 15.9128 0.771596 16.0143 1.03696 16.0143C1.30232 16.0143 1.56768 15.9128 1.76983 15.7106L7.99992 9.48035L14.2302 15.7106C14.4324 15.9128 14.6977 16.0143 14.9631 16.0143C15.2284 16.0143 15.4938 15.9128 15.6959 15.7106C16.1014 15.3054 16.1014 14.6501 15.6959 14.2449L9.46586 8.01461Z" fill="#222222" fill-opacity="0.7"/>
</g>
<defs>
<clipPath id="clip0_857:6268">
<rect width="16" height="16" fill="white"/>
</clipPath>
</defs>
</svg>
