<svg width="16" height="16" viewBox="0 0 16 16" fill="none" xmlns="http://www.w3.org/2000/svg">
<path d="M7.46995 12.0303C7.53959 12.1 7.62227 12.1552 7.71327 12.1929C7.80427 12.2306 7.9018 12.25 8.00029 12.25C8.09879 12.25 8.19632 12.2306 8.28731 12.1929C8.37831 12.1552 8.46099 12.1 8.53064 12.0303L11.359 9.20191C11.4997 9.06125 11.5787 8.87049 11.5787 8.67158C11.5787 8.47267 11.4997 8.2819 11.359 8.14125C11.2184 8.0006 11.0276 7.92158 10.8287 7.92158C10.6298 7.92158 10.439 8.0006 10.2984 8.14125L8.75029 9.68934V1.5C8.75029 1.30109 8.67127 1.11032 8.53062 0.96967C8.38997 0.829018 8.19921 0.75 8.00029 0.75C7.80138 0.75 7.61061 0.829018 7.46996 0.96967C7.32931 1.11032 7.25029 1.30109 7.25029 1.5V9.68934L5.7022 8.14125C5.56155 8.0006 5.37078 7.92158 5.17187 7.92158C4.97296 7.92158 4.7822 8.0006 4.64154 8.14125C4.50089 8.2819 4.42188 8.47267 4.42188 8.67158C4.42188 8.87049 4.50089 9.06125 4.64154 9.20191L7.46995 12.0303Z" fill="white"/>
<path d="M14.5 7.25C14.3011 7.25 14.1103 7.32902 13.9697 7.46967C13.829 7.61032 13.75 7.80109 13.75 8V13.75H2.25V8C2.25 7.80109 2.17098 7.61032 2.03033 7.46967C1.88968 7.32902 1.69891 7.25 1.5 7.25C1.30109 7.25 1.11032 7.32902 0.96967 7.46967C0.829018 7.61032 0.75 7.80109 0.75 8V14C0.75 14.3315 0.881696 14.6495 1.11612 14.8839C1.35054 15.1183 1.66848 15.25 2 15.25H14C14.3315 15.25 14.6495 15.1183 14.8839 14.8839C15.1183 14.6495 15.25 14.3315 15.25 14V8C15.25 7.80109 15.171 7.61032 15.0303 7.46967C14.8897 7.32902 14.6989 7.25 14.5 7.25Z" fill="white"/>
</svg>
