<svg width="16" height="16" viewBox="0 0 16 16" fill="none" xmlns="http://www.w3.org/2000/svg">
<path d="M0 8C0 12.4115 3.58853 16 8 16C12.4115 16 16 12.4115 16 8C16 3.58853 12.4108 0 8 0C3.58916 0 0 3.58853 0 8ZM14.7607 8C14.7607 11.7273 11.728 14.7607 8 14.7607C4.27203 14.7607 1.23934 11.7273 1.23934 8C1.23934 4.27203 4.27203 1.23934 8 1.23934C11.728 1.23934 14.7607 4.27266 14.7607 8Z" fill="#009C98"/>
<path d="M8.85451 4.46171L5.75613 7.56009C5.5157 7.80177 5.5157 8.19215 5.75613 8.43384L8.85451 11.5322C9.08626 11.7311 9.42895 11.7311 9.6607 11.5322C9.92035 11.3097 9.9507 10.9181 9.72823 10.6585L7.06985 8.00006L9.72826 5.33546C9.9687 5.09377 9.9687 4.7034 9.72826 4.46171C9.48657 4.22127 9.09616 4.22127 8.85451 4.46171Z" fill="#009C98"/>
</svg>
