<svg width="16" height="16" viewBox="0 0 16 16" fill="none" xmlns="http://www.w3.org/2000/svg">
<path d="M16 2.5C16 1.83696 15.7366 1.20107 15.2678 0.732233C14.7989 0.263392 14.163 0 13.5 0H4.5C3.83696 0 3.20107 0.263392 2.73223 0.732233C2.26339 1.20107 2 1.83696 2 2.5V6.256C2.318 6.144 2.653 6.066 3 6.027V4H15V11.5C15 11.8978 14.842 12.2794 14.5607 12.5607C14.2794 12.842 13.8978 13 13.5 13H8.121L9.121 14H13.5C14.163 14 14.7989 13.7366 15.2678 13.2678C15.7366 12.7989 16 12.163 16 11.5V2.5ZM4.5 1H13.5C13.8978 1 14.2794 1.15804 14.5607 1.43934C14.842 1.72064 15 2.10218 15 2.5V3H3V2.5C3 2.10218 3.15803 1.72064 3.43934 1.43934C3.72064 1.15804 4.10217 1 4.5 1ZM5.596 13.303C4.88734 13.8329 4.00426 14.0747 3.1245 13.9798C2.24473 13.8849 1.43357 13.4602 0.854276 12.7913C0.274981 12.1224 -0.029451 11.2589 0.00224859 10.3746C0.0339482 9.49031 0.399426 8.65083 1.02513 8.02513C1.65083 7.39943 2.49031 7.03395 3.37462 7.00225C4.25893 6.97055 5.12242 7.27498 5.79132 7.85428C6.46022 8.43357 6.88486 9.24473 6.9798 10.1245C7.07474 11.0043 6.83291 11.8873 6.303 12.596L8.853 15.146C8.94689 15.2398 8.99968 15.367 8.99978 15.4996C8.99987 15.6323 8.94725 15.7596 8.8535 15.8535C8.75975 15.9474 8.63253 16.0002 8.49985 16.0003C8.36717 16.0004 8.23989 15.9478 8.146 15.854L5.596 13.304V13.303ZM6 10.5C6 9.83696 5.73661 9.20107 5.26777 8.73223C4.79893 8.26339 4.16304 8 3.5 8C2.83696 8 2.20107 8.26339 1.73223 8.73223C1.26339 9.20107 0.999999 9.83696 0.999999 10.5C0.999999 11.163 1.26339 11.7989 1.73223 12.2678C2.20107 12.7366 2.83696 13 3.5 13C4.16304 13 4.79893 12.7366 5.26777 12.2678C5.73661 11.7989 6 11.163 6 10.5Z" fill="#616161"/>
</svg>
