<svg width="20" height="20" viewBox="0 0 20 20" fill="none" xmlns="http://www.w3.org/2000/svg">
<path d="M13.109 4.11017C13.1438 4.07524 13.1852 4.04754 13.2307 4.02863C13.2763 4.00973 13.3251 4 13.3744 4C13.4238 4 13.4726 4.00973 13.5182 4.02863C13.5637 4.04754 13.6051 4.07524 13.6399 4.11017L15.8898 6.36007C15.9248 6.3949 15.9525 6.43628 15.9714 6.48184C15.9903 6.52739 16 6.57623 16 6.62556C16 6.67488 15.9903 6.72372 15.9714 6.76927C15.9525 6.81483 15.9248 6.85621 15.8898 6.89104L8.39016 14.3907C8.35418 14.4265 8.31131 14.4545 8.26417 14.4732L4.51433 15.9731C4.44619 16.0004 4.37154 16.0071 4.29963 15.9924C4.22773 15.9776 4.16173 15.9421 4.10983 15.8902C4.05793 15.8383 4.0224 15.7723 4.00765 15.7004C3.9929 15.6285 3.99958 15.5538 4.02685 15.4857L5.52679 11.7358C5.54548 11.6887 5.57355 11.6458 5.60928 11.6098L13.109 4.11017ZM12.4047 5.87559L14.1244 7.59526L15.0941 6.62556L13.3744 4.90588L12.4047 5.87559ZM13.5942 8.12549L11.8745 6.40582L6.99972 11.2806V11.5003H7.37471C7.47416 11.5003 7.56954 11.5398 7.63986 11.6102C7.71018 11.6805 7.74969 11.7759 7.74969 11.8753V12.2503H8.12467C8.22413 12.2503 8.3195 12.2898 8.38983 12.3601C8.46015 12.4305 8.49966 12.5258 8.49966 12.6253V13.0003H8.7194L13.5942 8.12549ZM6.27376 12.0066L6.19426 12.0861L5.04831 14.9517L7.91393 13.8057L7.99343 13.7262C7.9219 13.6995 7.86023 13.6516 7.81667 13.5889C7.77312 13.5261 7.74975 13.4516 7.74969 13.3753V13.0003H7.37471C7.27526 13.0003 7.17988 12.9608 7.10955 12.8904C7.03923 12.8201 6.99972 12.7247 6.99972 12.6253V12.2503H6.62474C6.54838 12.2503 6.47385 12.2269 6.41113 12.1833C6.34841 12.1398 6.30048 12.0781 6.27376 12.0066Z" fill="#616161"/>
</svg>
