<svg width="8" height="16" viewBox="0 0 8 16" fill="none" xmlns="http://www.w3.org/2000/svg">
<path d="M0.612567 5.31409C0.644586 5.34501 0.678507 5.37386 0.714129 5.40054C1.16043 5.69975 1.75729 5.63445 2.12832 5.24578L2.46452 4.90958C2.58022 4.79347 2.67742 4.66029 2.7527 4.51467L2.96082 4.11443L2.96082 14.0618C2.93968 14.6037 3.31504 15.0808 3.84669 15.1878C4.42991 15.2733 4.97204 14.8698 5.05753 14.2866C5.0656 14.2316 5.06933 14.176 5.06877 14.1205L5.06877 4.13044L5.21285 4.4453C5.29073 4.6136 5.39726 4.76709 5.52771 4.8989L5.87992 5.25112C6.25095 5.63979 6.84781 5.70509 7.29411 5.40588C7.7697 5.05763 7.87296 4.3898 7.52472 3.91418C7.49657 3.87575 7.46588 3.83923 7.43286 3.80491L4.76458 1.13663C4.348 0.719579 3.67222 0.719213 3.25517 1.1358C3.2549 1.13606 3.2546 1.13636 3.25433 1.13663L0.586051 3.80491C0.176637 4.229 0.18851 4.90467 0.612567 5.31409Z" fill="#009C98"/>
</svg>
