<svg width="21" height="20" viewBox="0 0 21 20" fill="none" xmlns="http://www.w3.org/2000/svg">
<g clip-path="url(#clip0_2_5682)">
<path d="M19.689 17.5C19.689 17.5 20.9685 17.5 20.9685 16.25C20.9685 15 19.689 11.25 14.5709 11.25C9.45279 11.25 8.17326 15 8.17326 16.25C8.17326 17.5 9.45279 17.5 9.45279 17.5H19.689ZM9.48094 16.25C9.47148 16.2487 9.46209 16.2471 9.45279 16.245C9.45407 15.915 9.66647 14.9575 10.4252 14.095C11.1315 13.2863 12.3727 12.5 14.5709 12.5C16.7678 12.5 18.009 13.2875 18.7166 14.095C19.4753 14.9575 19.6864 15.9163 19.689 16.245L19.6788 16.2475C19.6728 16.2485 19.6668 16.2493 19.6609 16.25H9.48094ZM14.5709 8.75C15.2496 8.75 15.9005 8.48661 16.3804 8.01777C16.8603 7.54893 17.13 6.91304 17.13 6.25C17.13 5.58696 16.8603 4.95107 16.3804 4.48223C15.9005 4.01339 15.2496 3.75 14.5709 3.75C13.8922 3.75 13.2413 4.01339 12.7614 4.48223C12.2815 4.95107 12.0118 5.58696 12.0118 6.25C12.0118 6.91304 12.2815 7.54893 12.7614 8.01777C13.2413 8.48661 13.8922 8.75 14.5709 8.75ZM18.4095 6.25C18.4095 6.74246 18.3102 7.23009 18.1173 7.68506C17.9244 8.14003 17.6416 8.55343 17.2852 8.90165C16.9287 9.24987 16.5056 9.52609 16.0399 9.71455C15.5741 9.903 15.075 10 14.5709 10C14.0668 10 13.5677 9.903 13.1019 9.71455C12.6362 9.52609 12.2131 9.24987 11.8566 8.90165C11.5002 8.55343 11.2174 8.14003 11.0245 7.68506C10.8316 7.23009 10.7323 6.74246 10.7323 6.25C10.7323 5.25544 11.1367 4.30161 11.8566 3.59835C12.5765 2.89509 13.5528 2.5 14.5709 2.5C15.589 2.5 16.5653 2.89509 17.2852 3.59835C18.0051 4.30161 18.4095 5.25544 18.4095 6.25ZM9.3709 11.6C8.85906 11.4425 8.33145 11.339 7.79708 11.2913C7.49681 11.2634 7.19535 11.2496 6.89373 11.25C1.77562 11.25 0.496094 15 0.496094 16.25C0.496094 17.0837 0.922176 17.5 1.77562 17.5H7.17011C6.98043 17.1098 6.88583 16.6819 6.89373 16.25C6.89373 14.9875 7.37611 13.6975 8.28842 12.62C8.59934 12.2525 8.96145 11.9087 9.3709 11.6ZM6.79137 12.5C6.03409 13.6116 5.625 14.9148 5.6142 16.25H1.77562C1.77562 15.925 1.98546 14.9625 2.74806 14.095C3.4454 13.3 4.65712 12.525 6.79137 12.5013V12.5ZM2.41539 6.875C2.41539 5.88044 2.81981 4.92661 3.53968 4.22335C4.25955 3.52009 5.23591 3.125 6.25397 3.125C7.27202 3.125 8.24838 3.52009 8.96826 4.22335C9.68813 4.92661 10.0926 5.88044 10.0926 6.875C10.0926 7.86956 9.68813 8.82339 8.96826 9.52665C8.24838 10.2299 7.27202 10.625 6.25397 10.625C5.23591 10.625 4.25955 10.2299 3.53968 9.52665C2.81981 8.82339 2.41539 7.86956 2.41539 6.875ZM6.25397 4.375C5.57526 4.375 4.92436 4.63839 4.44444 5.10723C3.96453 5.57607 3.69491 6.21196 3.69491 6.875C3.69491 7.53804 3.96453 8.17393 4.44444 8.64277C4.92436 9.11161 5.57526 9.375 6.25397 9.375C6.93267 9.375 7.58358 9.11161 8.06349 8.64277C8.54341 8.17393 8.81302 7.53804 8.81302 6.875C8.81302 6.21196 8.54341 5.57607 8.06349 5.10723C7.58358 4.63839 6.93267 4.375 6.25397 4.375Z" fill="#595959"/>
</g>
<defs>
<clipPath id="clip0_2_5682">
<rect width="20.4724" height="20" fill="white" transform="translate(0.496094)"/>
</clipPath>
</defs>
</svg>
