<svg width="18" height="18" viewBox="0 0 18 18" fill="none" xmlns="http://www.w3.org/2000/svg">
<g clip-path="url(#clip0_1811_932)">
<path d="M17.8056 5.9217C17.6449 5.73189 17.409 5.62305 17.1584 5.62305H0.841583C0.591167 5.62305 0.355446 5.73189 0.194783 5.92149C0.044843 6.0985 -0.0229026 6.32877 0.00687455 6.55739L0.970148 16.61C0.970992 16.6178 0.971836 16.6255 0.97289 16.6331C1.05762 17.2673 1.59621 17.7455 2.22581 17.7455H15.7742C16.4361 17.7455 16.9881 17.2386 17.0299 16.61L17.9931 6.5576C18.0229 6.32901 17.9553 6.09871 17.8056 5.9217ZM15.7775 16.4884C15.7769 16.4874 15.7738 16.4867 15.7742 16.4872L2.23692 16.4891C2.23147 16.4865 2.22349 16.4771 2.221 16.4698L1.30192 6.88163H16.698L15.7775 16.4884Z" fill="#222222"/>
<path d="M16.4101 3.20678C16.2507 3.02326 16.019 2.91797 15.774 2.91797H2.2466C2.00185 2.91797 1.76904 3.02723 1.60778 3.21767C1.44568 3.40938 1.37561 3.65895 1.41506 3.89446L1.79256 6.34828L3.03645 6.157L2.73172 4.17634H15.2892L14.9846 6.157L16.2283 6.34828L16.6067 3.88733C16.6418 3.63948 16.5703 3.39134 16.4101 3.20678Z" fill="#222222"/>
<path d="M14.5442 0.543134C14.3848 0.359409 14.1528 0.253906 13.9074 0.253906H4.1132C3.86845 0.253906 3.63564 0.363171 3.47438 0.553611C3.31207 0.745316 3.24221 0.994889 3.28187 1.23209L3.65937 3.64396L4.90263 3.44934L4.59937 1.51228H13.4169L13.0979 3.44406L14.3395 3.64916L14.7401 1.22428C14.7757 0.97601 14.7042 0.727914 14.5442 0.543134Z" fill="#222222"/>
<path d="M11.6423 9.58691H6.35721C6.0097 9.58691 5.72803 9.86858 5.72803 10.2161C5.72803 10.5636 6.0097 10.8453 6.35721 10.8453H11.6423C11.9899 10.8453 12.2715 10.5636 12.2715 10.2161C12.2715 9.86858 11.9899 9.58691 11.6423 9.58691Z" fill="#222222"/>
</g>
<defs>
<clipPath id="clip0_1811_932">
<rect width="18" height="18" fill="white"/>
</clipPath>
</defs>
</svg>
