<svg width="18" height="18" viewBox="0 0 18 18" fill="none" xmlns="http://www.w3.org/2000/svg">
<g clip-path="url(#clip0_2_10261)">
<path d="M17.8056 5.92177C17.6449 5.73197 17.409 5.62312 17.1584 5.62312H0.841552C0.591136 5.62312 0.355416 5.73197 0.194753 5.92156C0.0448125 6.09857 -0.0229331 6.32884 0.00684403 6.55746L0.970118 16.6101C0.970962 16.6179 0.971805 16.6256 0.97286 16.6332C1.05759 17.2674 1.59618 17.7456 2.22578 17.7456H15.7742C16.4361 17.7456 16.9881 17.2387 17.0298 16.6101L17.9931 6.55767C18.0228 6.32909 17.9553 6.09878 17.8056 5.92177ZM15.7775 16.4885C15.7769 16.4874 15.7737 16.4868 15.7742 16.4872L2.23689 16.4891C2.23144 16.4866 2.22346 16.4772 2.22097 16.4698L1.30188 6.88171H16.698L15.7775 16.4885Z" fill="#616161"/>
<path d="M16.4102 3.20647C16.2508 3.02295 16.019 2.91766 15.774 2.91766H2.24666C2.00191 2.91766 1.7691 3.02692 1.60784 3.21736C1.44574 3.40907 1.37567 3.65864 1.41512 3.89415L1.79262 6.34798L3.03651 6.15669L2.73178 4.17604H15.2892L14.9847 6.15669L16.2284 6.34798L16.6067 3.88702C16.6419 3.63917 16.5704 3.39104 16.4102 3.20647Z" fill="#616161"/>
<path d="M14.5442 0.54307C14.3848 0.359344 14.1528 0.253841 13.9074 0.253841H4.1132C3.86845 0.253841 3.63564 0.363106 3.47438 0.553546C3.31207 0.745252 3.24221 0.994824 3.28187 1.23202L3.65937 3.6439L4.90263 3.44927L4.59937 1.51221H13.4169L13.0979 3.444L14.3395 3.6491L14.7401 1.22422C14.7757 0.975945 14.7042 0.727849 14.5442 0.54307Z" fill="#616161"/>
<path d="M11.6426 9.58702H6.35746C6.00994 9.58702 5.72827 9.86869 5.72827 10.2162C5.72827 10.5637 6.00994 10.8454 6.35746 10.8454H11.6426C11.9901 10.8454 12.2718 10.5637 12.2718 10.2162C12.2717 9.86869 11.9901 9.58702 11.6426 9.58702Z" fill="#616161"/>
</g>
<defs>
<clipPath id="clip0_2_10261">
<rect width="18" height="18" fill="white"/>
</clipPath>
</defs>
</svg>
