<svg width="20" height="20" viewBox="0 0 20 20" fill="none" xmlns="http://www.w3.org/2000/svg">
<path d="M13.9062 9.49219C14.4456 9.49219 14.8828 9.05497 14.8828 8.51562C14.8828 7.97628 14.4456 7.53906 13.9062 7.53906C13.3669 7.53906 12.9297 7.97628 12.9297 8.51562C12.9297 9.05497 13.3669 9.49219 13.9062 9.49219Z" fill="#222222"/>
<path d="M10 9.49219C10.5393 9.49219 10.9766 9.05497 10.9766 8.51562C10.9766 7.97628 10.5393 7.53906 10 7.53906C9.46066 7.53906 9.02344 7.97628 9.02344 8.51562C9.02344 9.05497 9.46066 9.49219 10 9.49219Z" fill="#222222"/>
<path d="M6.09375 9.49219C6.63309 9.49219 7.07031 9.05497 7.07031 8.51562C7.07031 7.97628 6.63309 7.53906 6.09375 7.53906C5.55441 7.53906 5.11719 7.97628 5.11719 8.51562C5.11719 9.05497 5.55441 9.49219 6.09375 9.49219Z" fill="#222222"/>
<path d="M19.2188 0H0.78125C0.349766 0 0 0.349766 0 0.78125V16.25C0 16.6815 0.349766 17.0312 0.78125 17.0312H7.69441L9.33945 19.6359C9.48262 19.8626 9.73195 20 10 20C10.268 20 10.5174 19.8626 10.6605 19.6359L12.3056 17.0312H19.2188C19.6502 17.0312 20 16.6815 20 16.25V0.78125C20 0.349766 19.6502 0 19.2188 0ZM18.4375 15.4688H11.875C11.607 15.4688 11.3576 15.6062 11.2145 15.8328L10 17.7557L8.78555 15.8328C8.64238 15.6062 8.39305 15.4688 8.125 15.4688H1.5625V1.5625H18.4375V15.4688Z" fill="#222222"/>
</svg>
