<svg width="20" height="20" viewBox="0 0 20 20" fill="none" xmlns="http://www.w3.org/2000/svg">
<path d="M11.8323 10.0185L19.6199 2.23066C20.1267 1.72409 20.1267 0.905046 19.6199 0.39848C19.1134 -0.108087 18.2943 -0.108087 17.7878 0.39848L9.9999 8.18632L2.21229 0.39848C1.70548 -0.108087 0.886671 -0.108087 0.380103 0.39848C-0.126701 0.905046 -0.126701 1.72409 0.380103 2.23066L8.16772 10.0185L0.380103 17.8063C-0.126701 18.3129 -0.126701 19.132 0.380103 19.6385C0.632557 19.8912 0.964495 20.0182 1.2962 20.0182C1.6279 20.0182 1.9596 19.8912 2.21229 19.6385L9.9999 11.8507L17.7878 19.6385C18.0404 19.8912 18.3721 20.0182 18.7038 20.0182C19.0355 20.0182 19.3672 19.8912 19.6199 19.6385C20.1267 19.132 20.1267 18.3129 19.6199 17.8063L11.8323 10.0185Z" fill="white"/>
</svg>
