<svg width="10" height="8" viewBox="0 0 10 8" fill="none" xmlns="http://www.w3.org/2000/svg">
<path d="M8.49196 0.329102C8.18616 0.329102 7.89876 0.448251 7.68246 0.664601L3.44652 4.90745L2.31752 3.77855C2.10137 3.56235 1.81397 3.44325 1.50827 3.44325C1.20252 3.44325 0.915119 3.56235 0.698919 3.7785C0.48277 3.99465 0.36377 4.28205 0.36377 4.58775C0.36377 4.89345 0.48277 5.18085 0.698919 5.39695L2.63742 7.33544C2.85357 7.55164 3.14097 7.67074 3.44672 7.67074C3.75231 7.67074 4.03981 7.55159 4.25621 7.33524L9.30126 2.28295C9.74741 1.83665 9.74736 1.11055 9.30126 0.664251C9.08511 0.448152 8.79766 0.329102 8.49196 0.329102Z" fill="#009C98"/>
</svg>
