<svg width="44" height="32" viewBox="0 0 44 32" fill="none" xmlns="http://www.w3.org/2000/svg">
<path d="M44 1.6563C44 1.58031 44 1.50431 43.962 1.42832C43.962 1.42832 43.962 1.42832 43.962 1.39032C43.924 1.31433 43.924 1.27633 43.886 1.20034C43.886 1.20034 43.886 1.16234 43.848 1.16234C43.81 1.08634 43.772 1.04835 43.696 1.01035C43.696 1.01035 43.696 1.01035 43.658 0.972355C43.62 0.934358 43.544 0.85837 43.468 0.85837C43.392 0.820373 43.3161 0.782372 43.2401 0.782372H43.2021C43.1261 0.782372 43.0881 0.744385 43.0121 0.744385H0.987912C0.911919 0.744385 0.873923 0.744375 0.79793 0.782372H0.759931C0.683938 0.782372 0.607942 0.820373 0.531949 0.85837C0.455956 0.896366 0.41796 0.934358 0.341967 0.972355C0.341967 0.972355 0.341976 0.972357 0.303979 1.01035C0.265983 1.04835 0.18998 1.12434 0.151984 1.16234C0.151984 1.16234 0.151993 1.20034 0.113997 1.20034C0.076 1.27633 0.0379989 1.31433 0.0379989 1.39032C0.0379989 1.39032 0.0379989 1.39032 0.0379989 1.42832C0.0379989 1.50431 0 1.58031 0 1.6563V15.981C0 16.285 0.151988 16.5889 0.417964 16.7409L21.468 31.0656C21.468 31.0656 21.506 31.0656 21.506 31.1036L21.544 31.1416C21.582 31.1416 21.62 31.1796 21.658 31.1796C21.696 31.1796 21.696 31.2176 21.734 31.2176C21.81 31.2556 21.886 31.2556 21.962 31.2556C22.038 31.2556 22.114 31.2556 22.19 31.2176C22.228 31.2176 22.228 31.1796 22.266 31.1796C22.304 31.1796 22.342 31.1416 22.38 31.1416L22.418 31.1036C22.418 31.1036 22.456 31.1036 22.456 31.0656L43.506 16.7409C43.772 16.5509 43.924 16.285 43.924 15.981L44 1.6563ZM40.0863 2.60621L35.2228 5.9119L22.038 14.8791L8.8532 5.9119L3.98964 2.60621H40.0863ZM1.89983 3.40414L21.0881 16.4749V28.5578L1.89983 15.487V3.40414ZM22.9499 28.5578V16.4749L42.1382 3.40414V15.487L22.9499 28.5578Z" fill="#009C98"/>
</svg>
