<svg width="14" height="14" viewBox="0 0 14 14" fill="none" xmlns="http://www.w3.org/2000/svg">
<path d="M12.8333 5.83335H8.16665V1.16668C8.16665 0.522332 7.64432 0 6.99997 0C6.35561 0 5.83328 0.522332 5.83328 1.16668V5.83335H1.16668C0.522332 5.83335 0 6.35568 0 7.00003C0 7.64439 0.522332 8.16665 1.16668 8.16665H5.83335V12.8333C5.83335 13.4777 6.35568 14 7.00003 14C7.64439 14 8.16665 13.4776 8.16665 12.8333V8.16665H12.8333C13.4777 8.16665 14 7.64432 14 6.99997C14 6.35561 13.4776 5.83335 12.8333 5.83335Z" fill="white"/>
</svg>
