<svg width="16" height="16" viewBox="0 0 16 16" fill="none" xmlns="http://www.w3.org/2000/svg">
<g clip-path="url(#clip0_1044:2156)">
<path d="M5.91303 0H1.04313C0.467813 0 0 0.468187 0 1.04347V5.91303C0 6.48834 0.468187 6.9565 1.04347 6.9565H5.91303C6.48834 6.9565 6.9565 6.48831 6.9565 5.91303V1.04347C6.95653 0.468187 6.48834 0 5.91303 0ZM6.26088 5.91303C6.26088 6.10469 6.10469 6.26084 5.91306 6.26084H1.04347C0.851812 6.26084 0.695656 6.10466 0.695656 5.91303V1.04347C0.695656 0.851812 0.851469 0.695656 1.04313 0.695656H5.91303C6.10469 0.695656 6.26084 0.851844 6.26084 1.04347V5.91303H6.26088Z" fill="#222222" fill-opacity="0.45"/>
<path d="M14.957 0H10.0874C9.5121 0 9.04395 0.468187 9.04395 1.04347V5.91303C9.04395 6.48834 9.51213 6.9565 10.0874 6.9565H14.957C15.5323 6.9565 16.0004 6.48831 16.0004 5.91303V1.04347C16.0004 0.468187 15.5323 0 14.957 0ZM15.3048 5.91303C15.3048 6.10469 15.149 6.26084 14.957 6.26084H10.0874C9.89541 6.26084 9.7396 6.10466 9.7396 5.91303V1.04347C9.7396 0.851812 9.89541 0.695656 10.0874 0.695656H14.957C15.149 0.695656 15.3048 0.851844 15.3048 1.04347V5.91303Z" fill="#222222" fill-opacity="0.45"/>
<path d="M5.91303 9.04346H1.04313C0.467813 9.04346 0 9.51164 0 10.087V14.9565C0 15.5318 0.468187 16 1.04347 16H5.91303C6.48834 16 6.9565 15.5318 6.9565 14.9565V10.087C6.95653 9.51164 6.48834 9.04346 5.91303 9.04346ZM6.26088 14.9565C6.26088 15.1485 6.10469 15.3043 5.91306 15.3043H1.04347C0.851812 15.3043 0.695656 15.1485 0.695656 14.9565V10.087C0.695656 9.89496 0.851469 9.73915 1.04313 9.73915H5.91303C6.10469 9.73915 6.26084 9.89496 6.26084 10.087V14.9565H6.26088Z" fill="#222222" fill-opacity="0.45"/>
<path d="M14.957 9.04346H10.0874C9.5121 9.04346 9.04395 9.51165 9.04395 10.0869V14.9565C9.04395 15.5318 9.51213 16 10.0874 16H14.957C15.5323 16 16.0004 15.5318 16.0004 14.9565V10.087C16.0004 9.51164 15.5323 9.04346 14.957 9.04346ZM15.3048 14.9565C15.3048 15.1485 15.149 15.3043 14.957 15.3043H10.0874C9.89541 15.3043 9.7396 15.1485 9.7396 14.9565V10.087C9.7396 9.89496 9.89541 9.73915 10.0874 9.73915H14.957C15.149 9.73915 15.3048 9.89496 15.3048 10.087V14.9565Z" fill="#222222" fill-opacity="0.45"/>
</g>
<defs>
<clipPath id="clip0_1044:2156">
<rect width="16" height="16" fill="white"/>
</clipPath>
</defs>
</svg>
