<?xml version="1.0" encoding="UTF-8"?>
<svg width="19px" height="20px" viewBox="0 0 19 20" version="1.1" xmlns="http://www.w3.org/2000/svg" xmlns:xlink="http://www.w3.org/1999/xlink">
    <!-- Generator: sketchtool 54.1 (76490) - https://sketchapp.com -->
    <title>278206DF-22C6-4552-A562-E02D98AA8904@1x</title>
    <desc>Created with sketchtool.</desc>
    <g id="Page-1" stroke="none" stroke-width="1" fill="none" fill-rule="evenodd">
        <g id="Created-post" transform="translate(-1456.000000, -26.000000)" fill="#8B8B8B" fill-rule="nonzero">
            <g id="Group-6">
                <g id="Group-5" transform="translate(1407.000000, 15.000000)">
                    <g id="notification" transform="translate(49.000000, 9.000000)">
                        <path d="M15.5409531,13.6367038 L15.5409531,8.46484532 C15.5409531,4.89429101 12.6466326,2 9.07610782,2 C5.50558309,2 2.61129208,4.89429101 2.61129208,8.46484532 L2.61129208,13.6367038 L0.0253480429,18.8085623 L5.90899261,18.8085623 C6.20831839,20.2838362 7.51227851,21.3945064 9.07610782,21.3945064 C10.6399371,21.3945064 11.9438973,20.2838362 12.243223,18.8085623 L18.1268676,18.8085623 L15.5409531,13.6367038 Z M9.07610782,20.1015196 C8.23308575,20.1015196 7.52263068,19.5604261 7.25560369,18.8085623 L10.8972331,18.8085623 C10.6296145,19.5604261 9.9191299,20.1015196 9.07610782,20.1015196 Z M1.96481347,17.5156051 L3.90424932,13.6367038 L3.90424932,8.46484532 C3.90424932,5.6086799 6.2199424,3.29298681 9.07610782,3.29298681 C11.9322437,3.29298681 14.2479663,5.6086799 14.2479663,8.46484532 L14.2479663,13.6367038 L16.1874022,17.5156051 L1.96481347,17.5156051 L1.96481347,17.5156051 Z" id="Shape"></path>
                    </g>
                </g>
            </g>
        </g>
    </g>
</svg>