<svg width="16" height="18" viewBox="0 0 16 18" fill="none" xmlns="http://www.w3.org/2000/svg">
<path d="M13.9062 2.25H10.8125V1.6875C10.8125 0.75702 10.0555 0 9.125 0H6.875C5.94452 0 5.1875 0.75702 5.1875 1.6875V2.25H2.09375C1.31834 2.25 0.6875 2.88084 0.6875 3.65625V5.625C0.6875 5.93564 0.939359 6.1875 1.25 6.1875H1.55741L2.04337 16.3928C2.0863 17.294 2.82669 18 3.72894 18H12.2711C13.1733 18 13.9137 17.294 13.9566 16.3928L14.4426 6.1875H14.75C15.0606 6.1875 15.3125 5.93564 15.3125 5.625V3.65625C15.3125 2.88084 14.6817 2.25 13.9062 2.25ZM6.3125 1.6875C6.3125 1.37735 6.56485 1.125 6.875 1.125H9.125C9.43515 1.125 9.6875 1.37735 9.6875 1.6875V2.25H6.3125V1.6875ZM1.8125 3.65625C1.8125 3.50118 1.93868 3.375 2.09375 3.375H13.9062C14.0613 3.375 14.1875 3.50118 14.1875 3.65625V5.0625C14.0141 5.0625 2.53085 5.0625 1.8125 5.0625V3.65625ZM12.8329 16.3393C12.8186 16.6397 12.5718 16.875 12.2711 16.875H3.72894C3.42818 16.875 3.18138 16.6397 3.16711 16.3393L2.68367 6.1875H13.3163L12.8329 16.3393Z" fill="#222222" fill-opacity="0.7"/>
<path d="M8 15.75C8.31064 15.75 8.5625 15.4981 8.5625 15.1875V7.875C8.5625 7.56436 8.31064 7.3125 8 7.3125C7.68936 7.3125 7.4375 7.56436 7.4375 7.875V15.1875C7.4375 15.4981 7.68932 15.75 8 15.75Z" fill="#222222" fill-opacity="0.7"/>
<path d="M10.8125 15.75C11.1231 15.75 11.375 15.4981 11.375 15.1875V7.875C11.375 7.56436 11.1231 7.3125 10.8125 7.3125C10.5019 7.3125 10.25 7.56436 10.25 7.875V15.1875C10.25 15.4981 10.5018 15.75 10.8125 15.75Z" fill="#222222" fill-opacity="0.7"/>
<path d="M5.1875 15.75C5.49814 15.75 5.75 15.4981 5.75 15.1875V7.875C5.75 7.56436 5.49814 7.3125 5.1875 7.3125C4.87686 7.3125 4.625 7.56436 4.625 7.875V15.1875C4.625 15.4981 4.87682 15.75 5.1875 15.75Z" fill="#222222" fill-opacity="0.7"/>
</svg>
