<svg width="69" height="48" viewBox="0 0 69 48" fill="none" xmlns="http://www.w3.org/2000/svg">
<path d="M68.5779 1.41967C68.5779 1.30137 68.5779 1.18306 68.5186 1.06475C68.5186 1.06475 68.5186 1.06475 68.5186 1.00559C68.4594 0.887287 68.4594 0.828134 68.4002 0.709827C68.4002 0.709827 68.4002 0.650671 68.341 0.650671C68.2817 0.532364 68.2225 0.473215 68.1041 0.414061C68.1041 0.414061 68.1041 0.414058 68.0449 0.354905C67.9856 0.295751 67.8672 0.177452 67.7487 0.177452C67.6303 0.118299 67.5119 0.0591387 67.3934 0.0591387H67.3342C67.2158 0.0591387 67.1565 0 67.0381 0H1.53975C1.42131 0 1.36209 -1.44426e-05 1.24364 0.0591387H1.18442C1.06598 0.0591387 0.947531 0.118299 0.829089 0.177452C0.710648 0.236606 0.651427 0.295751 0.532985 0.354905C0.532985 0.354905 0.532999 0.354908 0.473778 0.414061C0.414557 0.473215 0.296101 0.591517 0.23688 0.650671C0.23688 0.650671 0.236895 0.709827 0.177674 0.709827C0.118453 0.828134 0.0592245 0.887287 0.0592245 1.00559C0.0592245 1.00559 0.0592245 1.0056 0.0592245 1.06475C0.0592245 1.18306 0 1.30137 0 1.41967V23.7204C0 24.1936 0.236887 24.6669 0.651434 24.9035L33.4598 47.2042C33.4598 47.2042 33.5191 47.2042 33.5191 47.2634L33.5783 47.3225C33.6375 47.3225 33.6967 47.3817 33.7559 47.3817C33.8152 47.3817 33.8152 47.4408 33.8744 47.4408C33.9928 47.5 34.1113 47.5 34.2297 47.5C34.3482 47.5 34.4666 47.5 34.585 47.4408C34.6442 47.4408 34.6442 47.3817 34.7035 47.3817C34.7627 47.3817 34.8219 47.3225 34.8811 47.3225L34.9403 47.2634C34.9403 47.2634 34.9996 47.2634 34.9996 47.2042L67.808 24.9035C68.2225 24.6077 68.4594 24.1936 68.4594 23.7204L68.5779 1.41967ZM62.4781 2.8985L54.8978 8.04482L34.3481 22.005L13.7985 8.04482L6.2182 2.8985H62.4781ZM2.96105 4.14072L32.8676 24.4894V43.3001L2.96105 22.9514V4.14072ZM35.7694 43.3001V24.4894L65.676 4.14072V22.9514L35.7694 43.3001Z" fill="#009C98"/>
</svg>
