<svg width="20" height="20" viewBox="0 0 20 20" fill="none" xmlns="http://www.w3.org/2000/svg">
<g clip-path="url(#clip0_1044:1717)">
<path d="M10.0001 4.44448C11.2274 4.44448 12.2223 3.44955 12.2223 2.22224C12.2223 0.994931 11.2274 0 10.0001 0C8.77276 0 7.77783 0.994931 7.77783 2.22224C7.77783 3.44955 8.77276 4.44448 10.0001 4.44448Z" fill="#222222"/>
<path d="M10.0001 12.2223C11.2274 12.2223 12.2223 11.2274 12.2223 10.0001C12.2223 8.77276 11.2274 7.77783 10.0001 7.77783C8.77276 7.77783 7.77783 8.77276 7.77783 10.0001C7.77783 11.2274 8.77276 12.2223 10.0001 12.2223Z" fill="#222222"/>
<path d="M10.0001 20.0001C11.2274 20.0001 12.2223 19.0052 12.2223 17.7779C12.2223 16.5506 11.2274 15.5557 10.0001 15.5557C8.77276 15.5557 7.77783 16.5506 7.77783 17.7779C7.77783 19.0052 8.77276 20.0001 10.0001 20.0001Z" fill="#222222"/>
</g>
<defs>
<clipPath id="clip0_1044:1717">
<rect width="20" height="20" fill="white"/>
</clipPath>
</defs>
</svg>
