<svg width="80" height="18" viewBox="0 0 80 18" fill="none" xmlns="http://www.w3.org/2000/svg">
<path d="M12.9766 5.94434L7.94278 17.6567H5.10018L0.0664062 5.94434H2.909L6.58071 14.6398L10.3708 5.94434H12.9766Z" fill="#222222"/>
<path d="M13.9248 2.39555C13.9248 1.4491 14.6947 0.739258 15.7014 0.739258C16.7082 0.739258 17.4781 1.44909 17.4781 2.33639C17.4781 3.28284 16.7674 4.05183 15.7014 4.05183C14.6355 4.05183 13.9248 3.28285 13.9248 2.39555ZM14.2801 5.94474H17.0043V17.7162H14.2801V5.94474Z" fill="#222222"/>
<path d="M19.9053 1.38965H22.6294V17.7159H19.9053V1.38965Z" fill="#222222"/>
<path d="M45.1926 10.9726V17.716H42.4684V11.3275C42.4684 9.25711 41.5209 8.2515 39.8035 8.2515C38.0269 8.2515 36.724 9.43456 36.724 11.7415V17.716H33.9998V11.3275C33.9998 9.25711 33.0523 8.2515 31.3349 8.2515C29.499 8.2515 28.2554 9.43456 28.2554 11.7415V17.716H25.5312V6.00369H28.137V7.48252C29.0253 6.41776 30.3874 5.88537 31.9863 5.88537C33.7037 5.88537 35.125 6.53605 35.9541 7.83742C36.9017 6.65436 38.5006 5.88537 40.3365 5.88537C43.1791 5.82622 45.1926 7.42336 45.1926 10.9726Z" fill="#222222"/>
<path d="M57.8658 10.7951V17.716H55.2601V16.2963C54.6087 17.3019 53.3058 17.8935 51.5884 17.8935C48.9235 17.8935 47.2061 16.4146 47.2061 14.4034C47.2061 12.4514 48.5089 10.9134 52.0622 10.9134H55.0824V10.7359C55.0824 9.13881 54.1349 8.19234 52.1806 8.19234C50.8777 8.19234 49.5157 8.60642 48.6274 9.37541L47.5614 7.3642C48.805 6.41775 50.6409 5.88537 52.5359 5.88537C55.9115 5.82622 57.8658 7.42335 57.8658 10.7951ZM55.1416 14.0485V12.688H52.299C50.404 12.688 49.9302 13.3978 49.9302 14.226C49.9302 15.2316 50.7593 15.8231 52.1806 15.8231C53.4835 15.8231 54.6679 15.2316 55.1416 14.0485Z" fill="#222222"/>
<path d="M67.697 17.0648C67.0456 17.5972 66.0388 17.8338 65.0321 17.8338C62.4856 17.8338 61.0051 16.4733 61.0051 13.8705V8.25096H59.0508V6.06228H61.0051V3.40039H63.7292V6.06228H66.8679V8.25096H63.7292V13.8114C63.7292 14.9353 64.3214 15.586 65.3282 15.586C65.9204 15.586 66.4534 15.4085 66.8679 15.1127L67.697 17.0648Z" fill="#222222"/>
<path d="M79.9558 12.6884H70.7766C71.1319 14.4039 72.5532 15.5278 74.5667 15.5278C75.8696 15.5278 76.9355 15.1137 77.7646 14.2264L79.2451 15.9419C78.1792 17.1841 76.521 17.8348 74.5075 17.8348C70.5989 17.8348 67.9932 15.2912 67.9932 11.8011C67.9932 8.3111 70.5397 5.82666 74.0337 5.82666C77.4685 5.82666 79.9558 8.19279 79.9558 11.8603C80.015 12.0969 80.015 12.4518 79.9558 12.6884ZM70.7173 10.8547H77.4093C77.1724 9.13924 75.8695 8.01534 74.0929 8.01534C72.3163 8.01534 71.0135 9.13924 70.7173 10.8547Z" fill="#222222"/>
</svg>
