<svg width="20" height="20" viewBox="0 0 20 20" fill="none" xmlns="http://www.w3.org/2000/svg">
<path d="M16.8399 0H3.16011C1.41756 0 0 1.41756 0 3.16011V16.8399C0 18.5824 1.41756 20 3.16011 20H16.8399C18.5824 20 20 18.5824 20 16.8399V3.16011C20 1.41756 18.5824 0 16.8399 0ZM17.8932 16.8399C17.8932 17.4207 17.4207 17.8932 16.8399 17.8932H3.16011C2.57933 17.8932 2.10683 17.4207 2.10683 16.8399V3.16011C2.10683 2.57933 2.57939 2.10683 3.16011 2.10683H16.8399C17.4207 2.10683 17.8932 2.57939 17.8932 3.16011V16.8399H17.8932Z" fill="#009C98"/>
<path d="M13.88 5.92188C13.5402 5.92188 13.2208 6.05426 12.9805 6.29465L8.27391 11.0089L7.01946 9.75459C6.7793 9.51437 6.45996 9.38204 6.1203 9.38204C5.78058 9.38204 5.46124 9.51437 5.22102 9.75454C4.98086 9.9947 4.84863 10.314 4.84863 10.6537C4.84863 10.9934 4.98086 11.3127 5.22102 11.5528L7.37491 13.7067C7.61507 13.9469 7.93441 14.0793 8.27413 14.0793C8.61368 14.0793 8.93313 13.9469 9.17357 13.7065L14.7792 8.09282C15.2749 7.59693 15.2748 6.79015 14.7792 6.29426C14.539 6.05415 14.2196 5.92188 13.88 5.92188Z" fill="#009C98"/>
</svg>

