<svg width="28" height="28" viewBox="0 0 28 28" fill="none" xmlns="http://www.w3.org/2000/svg">
<path fill-rule="evenodd" clip-rule="evenodd" d="M4.375 20.125C4.375 19.8929 4.46719 19.6704 4.63128 19.5063C4.79538 19.3422 5.01794 19.25 5.25 19.25H22.75C22.9821 19.25 23.2046 19.3422 23.3687 19.5063C23.5328 19.6704 23.625 19.8929 23.625 20.125C23.625 20.3571 23.5328 20.5796 23.3687 20.7437C23.2046 20.9078 22.9821 21 22.75 21H5.25C5.01794 21 4.79538 20.9078 4.63128 20.7437C4.46719 20.5796 4.375 20.3571 4.375 20.125ZM4.375 13.125C4.375 12.8929 4.46719 12.6704 4.63128 12.5063C4.79538 12.3422 5.01794 12.25 5.25 12.25H22.75C22.9821 12.25 23.2046 12.3422 23.3687 12.5063C23.5328 12.6704 23.625 12.8929 23.625 13.125C23.625 13.3571 23.5328 13.5796 23.3687 13.7437C23.2046 13.9078 22.9821 14 22.75 14H5.25C5.01794 14 4.79538 13.9078 4.63128 13.7437C4.46719 13.5796 4.375 13.3571 4.375 13.125ZM4.375 6.125C4.375 5.89294 4.46719 5.67038 4.63128 5.50628C4.79538 5.34219 5.01794 5.25 5.25 5.25H22.75C22.9821 5.25 23.2046 5.34219 23.3687 5.50628C23.5328 5.67038 23.625 5.89294 23.625 6.125C23.625 6.35706 23.5328 6.57962 23.3687 6.74372C23.2046 6.90781 22.9821 7 22.75 7H5.25C5.01794 7 4.79538 6.90781 4.63128 6.74372C4.46719 6.57962 4.375 6.35706 4.375 6.125Z" fill="#222222" fill-opacity="0.4"/>
</svg>
