<svg width="80" height="18" viewBox="0 0 80 18" fill="none" xmlns="http://www.w3.org/2000/svg">
<path d="M12.9766 5.95898L7.94278 17.6847H5.10018L0.0664062 5.95898H2.909L6.58071 14.6644L10.3708 5.95898H12.9766Z" fill="#222222"/>
<path d="M13.9248 2.40623C13.9248 1.4587 14.6947 0.748047 15.7014 0.748047C16.7082 0.748047 17.4781 1.4587 17.4781 2.34701C17.4781 3.29454 16.7674 4.06441 15.7014 4.06441C14.6355 4.06441 13.9248 3.29455 13.9248 2.40623ZM14.2801 5.95949H17.0043V17.7445H14.2801V5.95949Z" fill="#222222"/>
<path d="M19.9053 1.40039H22.6294V17.7454H19.9053V1.40039Z" fill="#222222"/>
<path d="M45.1926 10.993V17.7442H42.4684V11.3484C42.4684 9.27562 41.5209 8.26886 39.8035 8.26886C38.0269 8.26886 36.724 9.45327 36.724 11.7629V17.7442H33.9998V11.3484C33.9998 9.27562 33.0523 8.26886 31.3349 8.26886C29.499 8.26886 28.2554 9.45327 28.2554 11.7629V17.7442H25.5312V6.01847H28.137V7.49899C29.0253 6.43302 30.3874 5.90002 31.9863 5.90002C33.7037 5.90002 35.125 6.55145 35.9541 7.85431C36.9017 6.66989 38.5006 5.90002 40.3365 5.90002C43.1791 5.8408 45.1926 7.43977 45.1926 10.993Z" fill="#222222"/>
<path d="M57.8658 10.8154V17.7442H55.2601V16.3229C54.6087 17.3297 53.3058 17.9219 51.5884 17.9219C48.9235 17.9219 47.2061 16.4413 47.2061 14.4278C47.2061 12.4735 48.5089 10.9338 52.0622 10.9338H55.0824V10.7561C55.0824 9.15718 54.1349 8.20964 52.1806 8.20964C50.8777 8.20964 49.5157 8.62418 48.6274 9.39405L47.5614 7.38055C48.805 6.43301 50.6409 5.90002 52.5359 5.90002C55.9115 5.8408 57.8658 7.43976 57.8658 10.8154ZM55.1416 14.0725V12.7104H52.299C50.404 12.7104 49.9302 13.4211 49.9302 14.2502C49.9302 15.2569 50.7593 15.8491 52.1806 15.8491C53.4835 15.8491 54.6679 15.2569 55.1416 14.0725Z" fill="#222222"/>
<path d="M67.697 17.0921C67.0456 17.6251 66.0388 17.862 65.0321 17.862C62.4856 17.862 61.0051 16.4999 61.0051 13.8942V8.26823H59.0508V6.07705H61.0051V3.41211H63.7292V6.07705H66.868V8.26823H63.7292V13.835C63.7292 14.9602 64.3214 15.6116 65.3282 15.6116C65.9204 15.6116 66.4534 15.434 66.868 15.1379L67.697 17.0921Z" fill="#222222"/>
<path d="M79.9558 12.7114H70.7766C71.1319 14.4288 72.5532 15.554 74.5667 15.554C75.8696 15.554 76.9355 15.1395 77.7646 14.2512L79.2451 15.9686C78.1792 17.2122 76.521 17.8637 74.5075 17.8637C70.5989 17.8637 67.9932 15.3171 67.9932 11.8231C67.9932 8.32908 70.5397 5.8418 74.0337 5.8418C77.4685 5.8418 79.9558 8.21064 79.9558 11.8823C80.015 12.1192 80.015 12.4745 79.9558 12.7114ZM70.7173 10.8756H77.4093C77.1724 9.15817 75.8695 8.03298 74.0929 8.03298C72.3163 8.03298 71.0135 9.15817 70.7173 10.8756Z" fill="#222222"/>
</svg>

