<svg width="20" height="20" viewBox="0 0 20 20" fill="none" xmlns="http://www.w3.org/2000/svg">
<path fill-rule="evenodd" clip-rule="evenodd" d="M2.5 16.875V8.75H3.75V16.875C3.75 17.0408 3.81585 17.1997 3.93306 17.3169C4.05027 17.4342 4.20924 17.5 4.375 17.5H15.625C15.7908 17.5 15.9497 17.4342 16.0669 17.3169C16.1842 17.1997 16.25 17.0408 16.25 16.875V8.75H17.5V16.875C17.5 17.3723 17.3025 17.8492 16.9508 18.2008C16.5992 18.5525 16.1223 18.75 15.625 18.75H4.375C3.87772 18.75 3.40081 18.5525 3.04917 18.2008C2.69754 17.8492 2.5 17.3723 2.5 16.875ZM16.25 3.125V7.5L13.75 5V3.125C13.75 2.95924 13.8158 2.80027 13.9331 2.68306C14.0503 2.56585 14.2092 2.5 14.375 2.5H15.625C15.7908 2.5 15.9497 2.56585 16.0669 2.68306C16.1842 2.80027 16.25 2.95924 16.25 3.125Z" fill="#595959"/>
<path fill-rule="evenodd" clip-rule="evenodd" d="M9.11606 1.87575C9.35047 1.64141 9.66836 1.50977 9.99981 1.50977C10.3313 1.50977 10.6492 1.64141 10.8836 1.87575L19.1923 10.1832C19.3097 10.3006 19.3756 10.4598 19.3756 10.6257C19.3756 10.7917 19.3097 10.9509 19.1923 11.0682C19.075 11.1856 18.9158 11.2515 18.7498 11.2515C18.5838 11.2515 18.4247 11.1856 18.3073 11.0682L9.99981 2.7595L1.69231 11.0682C1.57495 11.1856 1.41578 11.2515 1.24981 11.2515C1.08384 11.2515 0.924671 11.1856 0.807313 11.0682C0.689955 10.9509 0.624023 10.7917 0.624023 10.6257C0.624023 10.4598 0.689955 10.3006 0.807313 10.1832L9.11606 1.87575Z" fill="#595959"/>
</svg>
