<svg width="69" height="48" viewBox="0 0 69 48" fill="none" xmlns="http://www.w3.org/2000/svg">
<path d="M68.5779 1.4213C68.5779 1.30286 68.5779 1.18441 68.5186 1.06597C68.5186 1.06597 68.5186 1.06597 68.5186 1.00674C68.4594 0.888303 68.4594 0.829082 68.4002 0.71064C68.4002 0.71064 68.4002 0.651416 68.341 0.651416C68.2817 0.532974 68.2225 0.473757 68.1041 0.414536C68.1041 0.414536 68.1041 0.414532 68.0449 0.355311C67.9856 0.29609 67.8672 0.177656 67.7487 0.177656C67.6303 0.118435 67.5119 0.0592065 67.3934 0.0592065H67.3342C67.2158 0.0592065 67.1565 0 67.0381 0H1.53975C1.42131 0 1.36209 -1.44591e-05 1.24364 0.0592065H1.18442C1.06598 0.0592065 0.947531 0.118435 0.829089 0.177656C0.710648 0.236876 0.651427 0.29609 0.532985 0.355311C0.532985 0.355311 0.532999 0.355315 0.473778 0.414536C0.414557 0.473757 0.296101 0.592195 0.23688 0.651416C0.23688 0.651416 0.236895 0.71064 0.177674 0.71064C0.118453 0.829082 0.0592245 0.888303 0.0592245 1.00674C0.0592245 1.00674 0.0592245 1.00675 0.0592245 1.06597C0.0592245 1.18441 0 1.30286 0 1.4213V23.7476C0 24.2213 0.236887 24.6951 0.651434 24.932L33.4598 47.2583C33.4598 47.2583 33.5191 47.2583 33.5191 47.3175L33.5783 47.3767C33.6375 47.3767 33.6967 47.4359 33.7559 47.4359C33.8152 47.4359 33.8152 47.4952 33.8744 47.4952C33.9928 47.5544 34.1113 47.5544 34.2297 47.5544C34.3482 47.5544 34.4666 47.5544 34.585 47.4952C34.6442 47.4952 34.6442 47.4359 34.7035 47.4359C34.7627 47.4359 34.8219 47.3767 34.8811 47.3767L34.9403 47.3175C34.9403 47.3175 34.9996 47.3175 34.9996 47.2583L67.808 24.932C68.2225 24.6359 68.4594 24.2213 68.4594 23.7476L68.5779 1.4213ZM62.4781 2.90182L54.8978 8.05403L34.3481 22.0302L13.7985 8.05403L6.2182 2.90182H62.4781ZM2.96105 4.14546L32.8676 24.5175V43.3497L2.96105 22.9777V4.14546ZM35.7694 43.3497V24.5175L65.676 4.14546V22.9777L35.7694 43.3497Z" fill="#009C98"/>
</svg>

