<?xml version="1.0" encoding="UTF-8"?>
<svg width="18px" height="16px" viewBox="0 0 18 16" version="1.1" xmlns="http://www.w3.org/2000/svg" xmlns:xlink="http://www.w3.org/1999/xlink">
    <!-- Generator: sketchtool 54.1 (76490) - https://sketchapp.com -->
    <title>93E4CB19-9EB4-4BF4-B468-247446A72D93@1x</title>
    <desc>Created with sketchtool.</desc>
    <g id="Page-1" stroke="none" stroke-width="1" fill="none" fill-rule="evenodd">
        <g id="Time-tracking/var_2/Add-task" transform="translate(-1434.000000, -132.000000)" fill="#FFFFFF" fill-rule="nonzero">
            <g id="Group-9" transform="translate(1405.000000, 120.000000)">
                <g id="Group-5" transform="translate(29.000000, 12.000000)">
                    <g id="download">
                        <path d="M13.4878152,9.14508056 L8.72727273,13.5089111 L3.9667303,9.14508056 C3.72264498,8.92133569 3.70615579,8.54208438 3.92990067,8.29799907 C3.9416379,8.28519481 3.95392604,8.27290667 3.9667303,8.26116944 L3.9667303,8.26116944 C4.23951867,8.01111343 4.6582086,8.01111343 4.93099698,8.26116944 L8.04545455,11.1160889 L8.04545455,0.681818182 C8.04545455,0.305260398 8.35071494,-5.67742463e-14 8.72727273,-5.68434189e-14 L8.72727273,-5.68434189e-14 C9.10383051,-5.69125914e-14 9.40909091,0.305260398 9.40909091,0.681818182 L9.40909091,11.1160889 L12.5235485,8.26116944 C12.7963369,8.01111343 13.2150268,8.01111343 13.4878152,8.26116944 L13.4878152,8.26116944 C13.7319005,8.48491431 13.7483897,8.86416562 13.5246448,9.10825093 C13.5129076,9.12105519 13.5006194,9.13334333 13.4878152,9.14508056 Z M16.8295455,14.75 L0.625,14.75 C0.279822031,14.75 -4.22721094e-17,15.029822 0,15.375 L0,15.375 C4.22721094e-17,15.720178 0.279822031,16 0.625,16 L16.8295455,16 C17.1747234,16 17.4545455,15.720178 17.4545455,15.375 L17.4545455,15.375 C17.4545455,15.029822 17.1747234,14.75 16.8295455,14.75 Z" id="Shape"></path>
                    </g>
                </g>
            </g>
        </g>
    </g>
</svg>